<?xml version="1.0"?>
<svg xmlns="http://www.w3.org/2000/svg" xmlns:xlink="http://www.w3.org/1999/xlink" xmlns:svgjs="http://svgjs.com/svgjs" version="1.1" width="512" height="512" x="0" y="0" viewBox="0 0 512 512" style="enable-background:new 0 0 512 512" xml:space="preserve" class=""><g><script/><g xmlns="http://www.w3.org/2000/svg"><path d="m240.604 259.842c-13.438 0-24.371 10.933-24.371 24.37 0 13.438 10.933 24.371 24.371 24.371s24.371-10.933 24.371-24.371c.001-13.438-10.932-24.37-24.371-24.37z" fill="#ffffff" data-original="#000000" style="" class=""/><path d="m240.604 229.842c7.556 0 13.703-6.147 13.703-13.704 0-7.556-6.147-13.703-13.703-13.703s-13.703 6.147-13.703 13.703 6.148 13.704 13.703 13.704z" fill="#ffffff" data-original="#000000" style="" class=""/><path d="m256 0c-141.491 0-256 114.497-256 256 0 141.491 114.497 256 256 256 141.491 0 256-114.497 256-256 0-141.491-114.497-256-256-256zm-99.95 324.565c0 8.284-6.716 15-15 15s-15-6.716-15-15v-121.148h-14.1c-8.284 0-15-6.716-15-15s6.716-15 15-15h29.1c8.284 0 15 6.716 15 15zm84.554 14.018c-50.631 0-73.729-63.548-34.828-96.082-21.693-28.59-1.272-70.066 34.828-70.066 36.05 0 56.56 41.424 34.828 70.066 38.974 32.595 15.691 96.082-34.828 96.082zm159.446-101.17h-20v20.043c0 8.284-6.716 15-15 15s-15-6.716-15-15v-20.043h-20c-8.284 0-15-6.716-15-15s6.716-15 15-15h20v-19.979c0-8.284 6.716-15 15-15s15 6.716 15 15v19.979h20c8.284 0 15 6.716 15 15s-6.716 15-15 15z" fill="#ffffff" data-original="#000000" style="" class=""/></g></g></svg>
