<?xml version="1.0"?>
<svg xmlns="http://www.w3.org/2000/svg" xmlns:xlink="http://www.w3.org/1999/xlink" xmlns:svgjs="http://svgjs.com/svgjs" version="1.1" width="512" height="512" x="0" y="0" viewBox="0 0 511.966 511.966" style="enable-background:new 0 0 512 512" xml:space="preserve" class=""><g><script/><g xmlns="http://www.w3.org/2000/svg"><path d="m511.382 287.769c.893-2.224.956-5.25-1.209-7.798-.311-.361-31.42-36.465-69.115-72.078-51.666-48.813-90.84-73.563-116.435-73.563-27.926 0-55.464 13-69.467 32.571-7.62-10.693-19.057-19.401-33.247-25.283-3.828-1.587-8.214.229-9.801 4.057-1.586 3.826.23 8.214 4.057 9.8 12.171 5.045 22.086 12.792 27.919 21.815 3.394 5.252 10.104 7.394 15.96 5.09 2.52-.991 4.685-2.792 6.262-5.212 10.673-16.39 34.654-27.836 58.317-27.836 39.79 0 123.061 83.377 163.256 128.028h-43.895c-4.143 0-7.5 3.358-7.5 7.5s3.357 7.5 7.5 7.5h47.755c-44.766 77.129-112.168 121.458-190.965 125.216-5.675.273-11.422-.395-17.097-1.96.2-1.349.307-2.729.307-4.133v-26.5c0-4.142-3.357-7.5-7.5-7.5s-7.5 3.358-7.5 7.5v26.5c0 7.168-5.832 13-13 13s-13-5.832-13-13v-80c0-7.168 5.832-13 13-13s13 5.832 13 13v18.5c0 4.142 3.357 7.5 7.5 7.5s7.5-3.358 7.5-7.5v-18.5c0-2.467-.324-4.86-.926-7.14 1.87-1 3.694-2.087 5.445-3.288l.253-.174c27.186-18.659 58.982-28.521 91.955-28.521h28.401c4.143 0 7.5-3.358 7.5-7.5s-3.357-7.5-7.5-7.5h-28.401-.019c-32.975 0-64.769-9.87-91.947-28.544l-.295-.203c-5.238-3.586-11.995-4.018-17.635-1.13-4.616 2.365-9.606 3.563-14.831 3.563-5.229 0-10.225-1.201-14.845-3.57-5.637-2.89-12.392-2.461-17.629 1.12-.008.005-.015.01-.021.014-.017.011-.032.022-.049.033l-.323.222c-27.192 18.642-58.991 28.495-91.96 28.495h-107.24c39.555-44.628 121.74-128.028 161.77-128.028 4.143 0 7.5-3.358 7.5-7.5s-3.357-7.5-7.5-7.5c-25.755 0-64.705 24.761-115.768 73.594-37.246 35.62-67.857 71.732-68.162 72.093-1.61 1.862-2.534 5.416-.895 8.363 8.94 16.814 19.02 32.517 29.957 46.67 1.478 1.912 3.696 2.914 5.939 2.914 1.602 0 3.216-.511 4.581-1.566 3.277-2.533 3.881-7.243 1.349-10.521-8-10.352-15.525-21.587-22.456-33.519h110.925.066c32.939 0 64.712 9.845 91.883 28.471l.35.239c1.753 1.202 3.578 2.291 5.449 3.291-.599 2.275-.921 4.662-.921 7.122v80c0 1.404.107 2.784.307 4.133-5.674 1.564-11.425 2.232-17.097 1.959-54.941-2.62-105.426-25.461-145.998-66.053-2.929-2.93-7.678-2.93-10.606-.003-2.93 2.928-2.931 7.677-.003 10.606 43.255 43.276 97.161 67.631 155.893 70.433 6.611.36 15.802-.585 24.059-3.1 5.14 6.123 12.845 10.024 21.446 10.024 8.602 0 16.306-3.901 21.446-10.024 6.828 1.931 15.248 3.594 24.059 3.101 42.507-2.027 82.069-15.101 117.587-38.856 37.105-24.817 68.068-60.253 92.03-105.322.039-.118.136-.229.275-.612zm-329.038-2.917c17.407-5.236 33.998-13.157 49.26-23.619l.318-.219c.003-.001.005-.003.008-.005l.045-.03c.684-.467 1.596-.528 2.321-.156 6.663 3.417 14.163 5.223 21.688 5.223 7.519 0 15.012-1.803 21.668-5.212.729-.372 1.641-.311 2.375.191l.226.155c15.272 10.494 31.882 18.435 49.313 23.68-17.423 5.24-34.027 13.172-49.295 23.651l-.253.174c-1.459 1.001-2.979 1.909-4.547 2.719-5.044-4.897-11.917-7.921-19.487-7.921-7.574 0-14.451 3.028-19.497 7.931-1.569-.81-3.092-1.715-4.552-2.717l-.35-.239c-15.254-10.458-31.839-18.374-49.241-23.606z" fill="#ffffff" data-original="#000000" style=""/><path d="m255.984 131.483c16.542 0 30-13.234 30-29.5s-13.458-29.5-30-29.5-30 13.234-30 29.5 13.458 29.5 30 29.5zm0-44c8.271 0 15 6.505 15 14.5s-6.729 14.5-15 14.5-15-6.505-15-14.5 6.729-14.5 15-14.5z" fill="#ffffff" data-original="#000000" style=""/></g></g></svg>
