<?xml version="1.0"?>
<svg xmlns="http://www.w3.org/2000/svg" xmlns:xlink="http://www.w3.org/1999/xlink" xmlns:svgjs="http://svgjs.com/svgjs" version="1.1" width="512" height="512" x="0" y="0" viewBox="0 0 512 512" style="enable-background:new 0 0 512 512" xml:space="preserve" class=""><g><script/><g xmlns="http://www.w3.org/2000/svg"><path d="m34.01 139.507h135.238c9.303 0 16.914-7.611 16.914-16.914v-66.8c0-9.303-7.611-16.914-16.914-16.914h-135.238c-18.705 0-34.01 15.304-34.01 34.01v32.608c0 18.706 15.305 34.01 34.01 34.01z" fill="#ffffff" data-original="#000000" style="" class=""/><path d="m350.881 115.593c0 8.529 6.914 15.443 15.443 15.443s15.443-6.914 15.443-15.443v-10.559h21.061v17.766c0 8.529 6.914 15.443 15.443 15.443s15.443-6.914 15.443-15.443v-17.766h21.061v10.559c0 8.529 6.914 15.443 15.443 15.443s15.443-6.914 15.443-15.443v-10.559h10.894c8.529 0 15.443-6.914 15.443-15.443s-6.914-15.443-15.443-15.443h-10.894v-9.53c0-8.529-6.914-15.443-15.443-15.443s-15.443 6.914-15.443 15.443v9.53h-21.061v-19.826c0-8.529-6.914-15.443-15.443-15.443s-15.443 6.914-15.443 15.443v19.826h-21.061v-9.53c0-8.529-6.914-15.443-15.443-15.443s-15.443 6.914-15.443 15.443v9.53h-133.367v30.887h133.368v10.558z" fill="#ffffff" data-original="#000000" style="" class=""/><path d="m215.782 303.459c-33.045 0-62.13 4.165-87.312 10.542-12.014 16.699-18.116 36.141-18.116 57.892 0 55.817 45.41 101.228 101.228 101.228 55.817 0 101.228-45.411 101.228-101.228 0-23.891-7.62-45.607-22.069-63.174-21.998-3.239-46.937-5.26-74.959-5.26zm-5.297 121.757c-29.402 0-53.321-23.92-53.321-53.322 0-29.401 23.92-53.321 53.321-53.321 29.402 0 53.321 23.92 53.321 53.321 0 29.402-23.92 53.322-53.321 53.322z" fill="#ffffff" data-original="#000000" style="" class=""/><path d="m210.485 351.777c-11.093 0-20.117 9.024-20.117 20.116 0 11.093 9.024 20.117 20.117 20.117 11.092 0 20.117-9.024 20.117-20.117 0-11.091-9.025-20.116-20.117-20.116z" fill="#ffffff" data-original="#000000" style="" class=""/><path d="m421.723 355.303c-8.21-5.662-19.797-12.643-35.061-19.588-13.233-6.021-30.415-12.513-51.752-18.085 7.326 16.664 11.104 34.951 11.104 54.263 0 28.451-8.891 54.859-24.03 76.61 19.684-9.65 38.597-22.108 56.659-37.359 20.185-17.044 35.114-34.262 44.54-46.435 2.301-2.972 1.634-7.272-1.46-9.406z" fill="#ffffff" data-original="#000000" style="" class=""/><path d="m83.91 328.882c-16.612 6.996-30.579 14.632-41.892 21.812-16.644 10.564-29.391 21.203-38.388 29.724-4.082 3.866-3.92 10.399.319 14.093 10.088 8.79 24.382 19.985 42.548 31.092 15.395 9.413 35.053 19.608 58.517 28.138-17.463-22.684-27.866-51.072-27.866-81.847.001-15.183 2.279-29.543 6.762-43.012z" fill="#ffffff" data-original="#000000" style="" class=""/><path d="m492.31 260.023c-13.897-2.212-27.381-4.467-40.486-6.724v-16.296c0-5.849-3.21-11.329-8.474-13.88-12.458-6.037-24.731 2.878-24.731 14.66v9.679c-16.044-2.866-31.497-5.673-46.41-8.33.334-2.845.525-5.734.525-8.668v-19.59c0-5.849-3.21-11.329-8.474-13.88-12.458-6.037-24.731 2.878-24.731 14.66v18.809c0 .996-.049 1.98-.119 2.958-17.466-2.941-34.179-5.549-50.251-7.655.323-2.798.507-5.637.507-8.519v-19.59c0-5.849-3.21-11.329-8.474-13.88-12.458-6.037-24.731 2.878-24.731 14.66v18.809c0 1.653-.111 3.279-.303 4.881-18.605-1.607-36.367-2.282-53.483-1.717v-15.697c0-5.849-3.21-11.329-8.474-13.88-12.458-6.037-24.731 2.879-24.731 14.66v17.76c-50.421 9.008-95.611 30.149-154.014 98.156-1.001 1.165.402 2.856 1.72 2.066 146.371-87.694 331.057-60.206 438.768 13.46 6.342 4.337 14.976 2.886 19.596-3.252 10.495-13.943 27.698-39.186 35.861-64.46 1.238-10.576-6.82-7.246-19.091-9.2z" fill="#ffffff" data-original="#000000" style="" class=""/></g></g></svg>
