<?xml version="1.0"?>
<svg xmlns="http://www.w3.org/2000/svg" xmlns:xlink="http://www.w3.org/1999/xlink" xmlns:svgjs="http://svgjs.com/svgjs" version="1.1" width="512" height="512" x="0" y="0" viewBox="0 0 300 300" style="enable-background:new 0 0 512 512" xml:space="preserve" class=""><g><script/><path xmlns="http://www.w3.org/2000/svg" d="m56.002 52.315c2.209 0 4-1.791 4-4v-12c0-2.209-1.791-4-4-4s-4 1.791-4 4v12c0 2.209 1.791 4 4 4z" fill="#ffffff" data-original="#000000" style="" class=""/><path xmlns="http://www.w3.org/2000/svg" d="m56.002 80.315c2.209 0 4-1.791 4-4v-12c0-2.209-1.791-4-4-4s-4 1.791-4 4v12c0 2.209 1.791 4 4 4z" fill="#ffffff" data-original="#000000" style="" class=""/><path xmlns="http://www.w3.org/2000/svg" d="m36.002 60.315h12c2.209 0 4-1.791 4-4s-1.791-4-4-4h-12c-2.209 0-4 1.791-4 4s1.791 4 4 4z" fill="#ffffff" data-original="#000000" style="" class=""/><path xmlns="http://www.w3.org/2000/svg" d="m64.002 60.315h12c2.209 0 4-1.791 4-4s-1.791-4-4-4h-12c-2.209 0-4 1.791-4 4s1.791 4 4 4z" fill="#ffffff" data-original="#000000" style="" class=""/><path xmlns="http://www.w3.org/2000/svg" d="m60.002 200.315c0-2.209-1.791-4-4-4s-4 1.791-4 4v12c0 2.209 1.791 4 4 4s4-1.791 4-4z" fill="#ffffff" data-original="#000000" style="" class=""/><path xmlns="http://www.w3.org/2000/svg" d="m56.002 224.315c-2.209 0-4 1.791-4 4v12c0 2.209 1.791 4 4 4s4-1.791 4-4v-12c0-2.209-1.791-4-4-4z" fill="#ffffff" data-original="#000000" style="" class=""/><path xmlns="http://www.w3.org/2000/svg" d="m36.002 224.315h12c2.209 0 4-1.791 4-4s-1.791-4-4-4h-12c-2.209 0-4 1.791-4 4s1.791 4 4 4z" fill="#ffffff" data-original="#000000" style="" class=""/><path xmlns="http://www.w3.org/2000/svg" d="m64.002 224.315h12c2.209 0 4-1.791 4-4s-1.791-4-4-4h-12c-2.209 0-4 1.791-4 4s1.791 4 4 4z" fill="#ffffff" data-original="#000000" style="" class=""/><path xmlns="http://www.w3.org/2000/svg" d="m182.002 64.315c7.72 0 14-6.28 14-14s-6.28-14-14-14-14 6.28-14 14 6.281 14 14 14zm0-20c3.309 0 6 2.691 6 6s-2.691 6-6 6-6-2.691-6-6 2.692-6 6-6z" fill="#ffffff" data-original="#000000" style="" class=""/><path xmlns="http://www.w3.org/2000/svg" d="m102.002 168.315c7.72 0 14-6.28 14-14s-6.28-14-14-14-14 6.28-14 14 6.281 14 14 14zm0-20c3.309 0 6 2.691 6 6s-2.691 6-6 6-6-2.691-6-6 2.692-6 6-6z" fill="#ffffff" data-original="#000000" style="" class=""/><circle xmlns="http://www.w3.org/2000/svg" cx="112.002" cy="40.315" r="4" fill="#ffffff" data-original="#000000" style="" class=""/><circle xmlns="http://www.w3.org/2000/svg" cx="40.002" cy="124.315" r="4" fill="#ffffff" data-original="#000000" style="" class=""/><circle xmlns="http://www.w3.org/2000/svg" cx="136.002" cy="100.315" r="4" fill="#ffffff" data-original="#000000" style="" class=""/><circle xmlns="http://www.w3.org/2000/svg" cx="248.002" cy="224.315" r="4" fill="#ffffff" data-original="#000000" style="" class=""/><path xmlns="http://www.w3.org/2000/svg" d="m264.077 29.51c-7.334-3.974-16.537-1.239-20.511 6.096-1.925 3.554-2.352 7.644-1.2 11.518.761 2.559 2.16 4.811 4.04 6.607l-8.821 16.283-6.27-3.397c-.933-.505-2.029-.621-3.045-.317-1.017.302-1.872.996-2.377 1.929l-19.303 35.63-12.794-6.932c-1.406-.761-3.132-.613-4.387.38-25.897 20.488-41.264 48.817-45.672 84.198-.204 1.635.615 3.227 2.064 4.012l16.062 8.702-17.378 32.197c-.315.583-.48 1.237-.48 1.9v18.953l-9.359 16.649c-.073.129-.12.265-.177.398h-102.467c-2.209 0-4 1.791-4 4s1.791 4 4 4h168c2.209 0 4-1.791 4-4s-1.791-4-4-4h-55.018l25.318-27.646c.949-1.036 1.285-2.495.884-3.841l-2.424-8.155c-.177-.597-.111-1.228.186-1.776s.79-.948 1.387-1.126l8.155-2.424c1.463-.435 2.551-1.664 2.805-3.169l1.766-10.475 14.934 8.091c.6.325 1.254.483 1.904.483 1.04 0 2.067-.405 2.837-1.179 26.206-26.345 41.027-53.76 45.309-83.812.236-1.656-.583-3.285-2.055-4.082l-12.794-6.931 19.304-35.63c.505-.933.62-2.028.317-3.045-.302-1.017-.996-1.872-1.929-2.377l-6.27-3.397 8.817-16.274c1.12.263 2.264.401 3.414.401 1.448 0 2.904-.21 4.331-.634 3.874-1.151 7.068-3.743 8.993-7.296 3.974-7.336 1.239-16.537-6.096-20.512zm-32.914 129.859-59.188-32.066c2.036-2.922 4.216-5.742 6.538-8.458l56.505 30.613c-1.133 3.331-2.413 6.635-3.855 9.911zm-8.676 16.398-59.738-32.365c-.021-.011-.044-.016-.065-.027 1.509-3.207 3.157-6.317 4.942-9.33l60.066 32.542c-1.593 3.082-3.327 6.141-5.205 9.18zm-10.762 15.269-55.624-30.136c1.009-3.472 2.152-6.853 3.429-10.142l58.566 31.73c-1.989 2.865-4.119 5.713-6.371 8.548zm-37.904 21.353-5.764 1.713c-2.646.786-4.827 2.556-6.143 4.983-1.315 2.427-1.606 5.221-.819 7.867l1.778 5.984-10.871 11.87v-15.481l16.893-31.296 6.732 3.647zm25.335-7.064-17.199-9.318c-.002-.001-.003-.002-.005-.003l-9.99-5.412-19.927-10.796c.533-3.727 1.204-7.363 1.999-10.917l52.472 28.428c-2.335 2.683-4.773 5.357-7.35 8.018zm38.221-63.688-53.29-28.871c2.602-2.62 5.344-5.135 8.243-7.534l47.372 25.665c-.602 3.618-1.387 7.195-2.325 10.74zm-11.215-27.175-12.539-6.793 17.398-32.113 12.54 6.794zm36.977-68.252c-.907 1.675-2.413 2.896-4.238 3.438-1.826.543-3.753.342-5.428-.565s-2.896-2.413-3.439-4.238-.342-3.753.566-5.428c1.29-2.381 3.747-3.733 6.282-3.733 1.146 0 2.308.276 3.384.86 3.457 1.873 4.746 6.209 2.873 9.666z" fill="#ffffff" data-original="#000000" style="" class=""/></g></svg>
