<?xml version="1.0"?>
<svg xmlns="http://www.w3.org/2000/svg" xmlns:xlink="http://www.w3.org/1999/xlink" xmlns:svgjs="http://svgjs.com/svgjs" version="1.1" width="512" height="512" x="0" y="0" viewBox="0 0 60 54" style="enable-background:new 0 0 512 512" xml:space="preserve" class=""><g><script/><path xmlns="http://www.w3.org/2000/svg" id="Shape" d="m35.718 2.756c-.9599682-1.70292925-2.7631325-2.75638875-4.718-2.75638875s-3.7580318 1.0534595-4.718 2.75638875l-24.543 42.962c-.98306303 1.6983683-.9901744 3.7910508-.01867676 5.4960611.97149765 1.7050103 2.77541746 2.7657856 4.73767676 2.7859389h49.084c1.9622593-.0201533 3.7661791-1.0809286 4.7376768-2.7859389.9714976-1.7050103.9643862-3.7976928-.0186768-5.4960611zm-7.218 34.566c-1.7525155-1.0112394-2.722824-2.9790134-2.4580825-4.9849614.2647416-2.005948 1.7123412-3.6546107 3.6672038-4.1765567 1.9548627-.521946 4.0316.1857228 5.2609983 1.7927372s1.3690898 3.7965622.3538804 5.5467809c-.6607753 1.1492497-1.7524187 1.987683-3.0332206 2.3296556-1.280802.3419726-2.6450876.1592695-3.7907794-.5076556zm9.415-5.322h12.206l1.143 2h-13.35c.1143447-.661735.1146829-1.338151.001-2zm17.627 20h-49.084c-1.24905664-.0207995-2.39345883-.70224-3.00690375-1.7904773-.61344493-1.0882373-.60396677-2.4201261.02490375-3.4995227l24.542-42.962c.6041156-1.07975946 1.7447304-1.74859807 2.982-1.74859807s2.3778844.66883861 2.982 1.74859807l14.997 26.252h-10.788l5.429-3.134c.4742136-.2780058.6351286-.886647.3602745-1.3626943-.274854-.4760473-.8824145-.640996-1.3602745-.3693057l-6.129 3.537c-.3391519-.4329876-.7293043-.8234758-1.162-1.163l3.537-6.128c.1814844-.3095704.1831833-.6926495.0044519-1.0038174-.1787315-.311168-.5104885-.5027136-.8693336-.5019247s-.6897567.1937913-.8671183.5057421l-3.534 6.13c-.5149971-.2014785-1.0520869-.3411218-1.6-.416v-9.094c0-.5522847-.4477153-1-1-1s-1 .4477153-1 1v9.093c-.5480666.0741-1.0852479.2137672-1.6.416l-3.534-6.129c-.2780058-.4742136-.886647-.6351286-1.3626943-.3602745-.4760473.274854-.640996.8824145-.3693057 1.3602745l3.537 6.128c-.43277.3397748-.8232252.73023-1.163 1.163l-6.128-3.537c-.47786-.2716903-1.0854205-.1067416-1.3602745.3693057-.2748541.4760473-.1139391 1.0846885.3602745 1.3626943l6.126 3.534c-.2070754.5141271-.3514492 1.0513319-.43 1.6h-9.076c-.5522847 0-1 .4477153-1 1s.4477153 1 1 1h9.076c.0781717.5486375.2222113 1.0858479.429 1.6l-6.125 3.534c-.3919413.2263139-.5830208.6876562-.4658809 1.1248223.1171398.4371661.5132928.7411578.9658809.7411777.382 0 0 .152 6.628-3.671.3394207.4327495.7295426.8232072 1.162 1.163l-3.536 6.128c-.1814844.3095704-.1831833.6926495-.0044519 1.0038174.1787315.311168.5104885.5027136.8693336.5019247s.6897567-.1937913.8671183-.5057421l3.534-6.126c.5141271.2070754 1.0513319.3514492 1.6.43v9.076c0 .5522847.4477153 1 1 1s1-.4477153 1-1v-9.076c.5486102-.0783051 1.0858048-.2223404 1.6-.429l3.536 6.125c.1773616.3119508.5082732.5049532.8671183.5057421s.6906021-.1907567.8693336-.5019247c.1787314-.3111679.1770325-.694247-.0044519-1.0038174l-3.537-6.128c.4330622-.3394026.8238531-.7295221 1.164-1.162 6.623 3.824 6.242 3.67 6.624 3.67.4525881-.0000199.8487411-.3040116.9658809-.7411777.1171399-.4371661-.0739396-.8985084-.4658809-1.1248223l-5.428-3.134h14.215l6.118 10.71c.6295226 1.0793111.6393266 2.4115444.0257567 3.5000035-.61357 1.088459-1.7584356 1.7697992-3.0077567 1.7899965z" transform="translate(-1)" fill="#ffffff" data-original="#000000" style=""/></g></svg>
