<svg id="Capa_1" enable-background="new 0 0 512 512" height="512" viewBox="0 0 512 512" width="512" xmlns="http://www.w3.org/2000/svg"><g><g><path d="m390.402 465.625h109.118c3.521 0 5.936-3.548 4.643-6.824l-32.474-82.304c-1.393-3.532-1.393-7.461 0-10.993l32.474-82.304c1.292-3.276-1.122-6.824-4.643-6.824h-112.113v186.254c0 1.655 1.34 2.995 2.995 2.995z" fill="#ffe07d"/></g><g><path d="m121.598 465.625h-109.117c-3.521 0-5.936-3.548-4.643-6.824l32.474-82.304c1.393-3.532 1.393-7.461 0-10.993l-32.475-82.303c-1.292-3.276 1.122-6.824 4.643-6.824h112.113v186.253c0 1.655-1.34 2.995-2.995 2.995z" fill="#ffe07d"/></g><g><path d="m471.689 376.498c-1.394-3.532-1.394-7.461 0-10.993l32.474-82.304c1.292-3.276-1.122-6.824-4.643-6.824h-22.712c3.521 0 5.936 3.548 4.643 6.824l-32.474 82.304c-1.394 3.532-1.394 7.461 0 10.993l25.67 65.059c.517 1.31-.449 2.729-1.857 2.729h-85.382v18.344c0 1.654 1.341 2.995 2.995 2.995h109.117c3.521 0 5.936-3.548 4.643-6.824z" fill="#ffd064"/></g><g><path d="m100.027 276.378v164.913c0 1.654-1.341 2.995-2.995 2.995h-83.467l-5.727 14.516c-1.293 3.276 1.122 6.824 4.643 6.824h109.118c1.654 0 2.995-1.341 2.995-2.995v-186.253z" fill="#ffd064"/></g><g><path d="m428.716 379.074-41.309 82.558v-82.558z" fill="#e28086"/></g><g><path d="m408.061 379.074-20.654 41.279v41.279l41.309-82.558z" fill="#dd636e"/></g><g><path d="m83.284 379.074 41.309 82.558v-82.558z" fill="#e28086"/></g><g><path d="m105.352 379.074v44.103l19.241 38.455v-82.558z" fill="#dd636e"/></g><g><path d="m402.052 395.274h-292.104c-16.569 0-30-13.431-30-30v-129.248c0-16.569 13.431-30 30-30h292.104c16.569 0 30 13.431 30 30v129.248c0 16.568-13.431 30-30 30z" fill="#ffd064"/></g><g><path d="m407.56 206.531c.326 1.771.505 3.593.505 5.458v145.321c0 7.719-6.257 13.977-13.977 13.977h-308.178c-1.865 0-3.687-.179-5.457-.505 2.567 13.934 14.769 24.493 29.445 24.493h292.204c16.541 0 29.95-13.409 29.95-29.95v-129.349c0-14.676-10.559-26.878-24.492-29.445z" fill="#ffc250"/></g><g><path d="m399.927 160.772h-29.493v-46.66h29.493c5.523 0 10 4.477 10 10v26.66c0 5.523-4.477 10-10 10z" fill="#365e7d"/></g><g><path d="m399.944 114.112h-4.362v22.331c0 5.514-4.47 9.983-9.983 9.983h-15.164v14.345h29.51c5.514 0 9.983-4.47 9.983-9.983v-26.693c-.001-5.513-4.47-9.983-9.984-9.983z" fill="#2b4d66"/></g><g><path d="m352.232 243.339h-21.757c-3.866 0-7-3.134-7-7v-75.567h35.757v75.567c0 3.866-3.134 7-7 7z" fill="#365e7d"/></g><g><path d="m344.298 160.772v60.644c0 3.86-3.129 6.988-6.988 6.988h-13.835v7.945c0 3.86 3.129 6.988 6.988 6.988h21.78c3.86 0 6.988-3.129 6.988-6.988v-75.578h-14.933z" fill="#2b4d66"/></g><g><circle cx="231.321" cy="137.442" fill="#365e7d" r="23.686"/></g><g><path d="m232.506 113.786c1.463 3.078 2.285 6.521 2.285 10.157 0 13.082-10.605 23.686-23.686 23.686-.398 0-.793-.011-1.185-.03 3.803 7.999 11.955 13.53 21.402 13.53 13.082 0 23.686-10.605 23.686-23.686 0-12.685-9.971-23.04-22.502-23.657z" fill="#2b4d66"/></g><g><g><path d="m338.032 96.243c-38.445 0-73.149-15.959-97.89-41.598-1.249-1.294-3.431-.422-3.431 1.377v162.843c0 1.799 2.182 2.671 3.431 1.377 24.74-25.632 59.451-41.574 97.89-41.574h28.03c6.616 0 11.98-5.364 11.98-11.98v-58.463c0-6.616-5.364-11.98-11.98-11.98h-28.03z" fill="#f4fbff"/></g></g><g><path d="m366.063 96.243h-6.83v50.521c0 6.616-5.364 11.98-11.98 11.98h-28.031c-31.028 0-59.624 10.393-82.51 27.879v32.24c0 1.799 2.182 2.671 3.431 1.377 24.74-25.632 59.451-41.574 97.89-41.574h28.031c6.616 0 11.98-5.364 11.98-11.98v-58.463c-.001-6.617-5.365-11.98-11.981-11.98z" fill="#e4f6ff"/></g><g><path d="m511.128 456.054-32.474-82.305c-.7-1.772-.7-3.724 0-5.496l32.473-82.303c1.518-3.846 1.036-8.182-1.29-11.601-2.326-3.418-6.183-5.459-10.318-5.459h-59.979v-32.914c0-20.643-16.794-37.438-37.438-37.438h-35.382v-12.417c9.902-.333 17.942-8.079 18.731-17.861h14.493c9.633 0 17.471-7.838 17.471-17.471v-26.693c0-9.633-7.838-17.471-17.471-17.471h-14.495c-.817-9.988-9.191-17.87-19.387-17.87h-28.031c-35.19 0-68.041-13.961-92.501-39.31-2.702-2.8-6.776-3.668-10.381-2.213-3.6 1.454-5.926 4.903-5.926 8.789v50.326c-16.214 1.084-29.077 14.612-29.077 31.095 0 16.484 12.862 30.012 29.077 31.096v30h-55.218c1.348-2.75 1.921-5.478 2.376-7.66.81-3.885 1.179-4.902 2.953-5.97 1.773-1.068 2.845-.918 6.657.185 4.374 1.266 10.985 3.179 18.542-1.37 3.543-2.133 4.687-6.734 2.554-10.276-2.132-3.543-6.734-4.687-10.276-2.554-1.774 1.068-2.844.919-6.658-.185-4.373-1.265-10.984-3.178-18.542 1.37-7.557 4.549-8.961 11.286-9.89 15.744-.81 3.885-1.179 4.902-2.953 5.97-1.773 1.067-2.844.917-6.655-.185-4.374-1.265-10.986-3.179-18.541 1.369-7.557 4.549-8.96 11.286-9.889 15.744-.809 3.884-1.178 4.901-2.951 5.968-3.543 2.133-4.687 6.733-2.554 10.276 1.405 2.335 3.882 3.627 6.422 3.627 1.314 0 2.646-.346 3.854-1.073 7.557-4.549 8.96-11.286 9.889-15.744.019-.091.037-.173.055-.261h90.825v5.35c0 3.885 2.326 7.335 5.925 8.789 3.561 1.446 7.67.604 10.381-2.212 4.162-4.313 8.574-8.287 13.193-11.927h57.265v22.837c0 7.982 6.494 14.476 14.476 14.476h21.78c7.982 0 14.476-6.494 14.476-14.476v-22.837h35.383c12.386 0 22.463 10.077 22.463 22.463v129.347c0 12.386-10.077 22.463-22.463 22.463h-292.204c-12.386 0-22.463-10.077-22.463-22.463v-129.347c0-8.272 4.528-15.854 11.818-19.787 3.639-1.964 4.998-6.505 3.035-10.145-1.963-3.639-6.505-4.997-10.145-3.035-12.14 6.55-19.683 19.182-19.683 32.966v32.914h-59.98c-4.135 0-7.992 2.041-10.318 5.46-2.326 3.418-2.808 7.755-1.29 11.599l32.474 82.305c.7 1.772.7 3.724 0 5.496l-11.351 28.768c-1.518 3.847.37 8.196 4.217 9.713 3.748 1.508 8.197-.332 9.713-4.217l11.351-28.768c2.098-5.316 2.098-11.173 0-16.489l-31.127-78.892h56.311v81.458c0 6.035 1.444 11.735 3.991 16.789.046.104.086.209.137.312l37.884 75.713h-98.323l7.817-19.814c1.517-3.847-.37-8.195-4.217-9.713-3.844-1.517-8.195.37-9.713 4.217l-9.163 23.225c-1.518 3.846-1.036 8.182 1.29 11.6 2.326 3.419 6.183 5.46 10.318 5.46h109.118c5.78 0 10.483-4.703 10.483-10.483v-59.869h247.838v59.869c0 5.78 4.703 10.483 10.483 10.483h50.351c4.135 0 7.488-3.352 7.488-7.488 0-4.135-3.352-7.488-7.488-7.488h-43.225l37.885-75.713c.051-.103.091-.208.137-.312 2.547-5.053 3.991-10.754 3.991-16.789v-81.458h56.311l-31.127 78.892c-2.098 5.316-2.098 11.173 0 16.489l31.127 78.892h-19.913c-4.135 0-7.488 3.352-7.488 7.488 0 4.135 3.352 7.488 7.488 7.488h23.579c4.135 0 7.992-2.041 10.318-5.459s2.808-7.754 1.291-11.599zm-108.688-331.958v26.693c0 1.376-1.12 2.496-2.496 2.496h-14.414v-31.685h14.414c1.376 0 2.496 1.119 2.496 2.496zm-187.318 13.346c0-8.22 6.159-15.013 14.102-16.047v32.094c-7.943-1.033-14.102-7.827-14.102-16.047zm29.077 68.64v-137.276c26.05 22.611 58.909 34.924 93.833 34.924h28.031c2.477 0 4.493 2.015 4.493 4.493v58.464c0 2.477-2.015 4.493-4.493 4.493h-28.031c-34.931-.001-67.789 12.304-93.833 34.902zm38.596-7.544c10.483-4.995 21.626-8.535 33.193-10.515v10.515zm48.168 37.313v-49.503c2.345-.126 20.782-.194 20.782-.194v49.697zm-213.857 194.085-13.903-27.786c2.174.394 4.409.612 6.695.612h7.208zm284.996-27.175c2.286 0 4.521-.217 6.695-.611l-13.903 27.786v-27.175z"/><path d="m213.977 336.528 4.147-10.888h28.265l4.101 10.866c1.132 2.998 3.981 4.846 7.007 4.846.878 0 1.772-.156 2.642-.484 3.869-1.46 5.822-5.78 4.362-9.649l-23.807-63.083c-.026-.069-.053-.137-.081-.205-1.384-3.365-4.628-5.537-8.266-5.537-.003 0-.007 0-.01 0-3.642.004-6.885 2.184-8.264 5.555-.023.056-.045.112-.066.169l-24.025 63.08c-1.472 3.865.467 8.19 4.332 9.662 3.866 1.471 8.19-.469 9.663-4.332zm18.344-48.165 8.416 22.302h-16.91z"/><path d="m296.653 261.447c-4.135 0-7.488 3.352-7.488 7.488v63.928c0 3.648 2.629 6.765 6.225 7.38.531.091 16.449.148 23.708.107 4.135-.023 7.469-3.394 7.446-7.529s-3.408-7.461-7.529-7.446c-5.138.029-10.654.049-14.875.053v-56.493c.001-4.135-3.352-7.488-7.487-7.488z"/><path d="m383.963 277.006c4.135 0 7.488-3.352 7.488-7.488 0-4.135-3.352-7.488-7.488-7.488h-26.713c-4.135 0-7.488 3.352-7.488 7.488v63.398c0 4.135 3.352 7.488 7.488 7.488h26.713c4.135 0 7.488-3.352 7.488-7.488 0-4.135-3.352-7.488-7.488-7.488h-19.226v-16.724h17.256c4.135 0 7.488-3.352 7.488-7.488 0-4.135-3.352-7.488-7.488-7.488h-17.256v-16.724h19.226z"/><path d="m154.085 326.375c-6.501 0-12.762-2.626-16.748-7.024-2.777-3.064-7.512-3.297-10.576-.521-3.064 2.777-3.297 7.512-.521 10.576 6.777 7.479 17.186 11.944 27.844 11.944 13.236 0 24.348-8.427 26.421-20.038 1.557-8.717-2.427-20.115-18.274-25.961-7.945-2.931-15.335-6.124-17.511-7.078-2-1.562-1.936-3.764-1.805-4.676.176-1.226 1.059-4.22 5.447-5.542 9.282-2.796 17.839 3.973 18.077 4.164 3.165 2.627 7.863 2.21 10.514-.943 2.661-3.166 2.252-7.889-.914-10.55-.596-.501-14.781-12.198-31.997-7.01-8.64 2.603-14.752 9.405-15.951 17.753-1.178 8.143 2.326 16.933 9.883 20.196 4.703 2.031 9.165 4.081 19.072 7.735 2.926 1.079 9.631 4.143 8.715 9.279-.672 3.784-5.225 7.696-11.676 7.696z"/><path d="m91.959 136.238c2.069 0 2.91.681 5.606 3.591 3.095 3.341 7.772 8.389 16.592 8.389s13.497-5.048 16.592-8.389c2.697-2.911 3.537-3.591 5.606-3.591 2.07 0 2.911.681 5.608 3.592 3.095 3.34 7.773 8.388 16.593 8.388s13.498-5.048 16.594-8.388c2.697-2.911 3.538-3.592 5.608-3.592 4.135 0 7.488-3.352 7.488-7.488 0-4.135-3.352-7.488-7.488-7.488-8.82 0-13.498 5.048-16.593 8.388-2.697 2.911-3.538 3.592-5.609 3.592-2.07 0-2.911-.681-5.608-3.592-3.095-3.34-7.773-8.388-16.593-8.388s-13.497 5.048-16.592 8.389c-2.697 2.911-3.538 3.591-5.607 3.591s-2.91-.681-5.606-3.591c-3.095-3.341-7.772-8.389-16.592-8.389-4.135 0-7.488 3.352-7.488 7.488.001 4.135 3.354 7.488 7.489 7.488z"/><path d="m120.732 52.791c1.772 1.067 2.141 2.083 2.951 5.968.929 4.458 2.332 11.196 9.889 15.744s14.167 2.635 18.541 1.369c3.81-1.104 4.883-1.253 6.656-.185s2.143 2.084 2.953 5.97c.929 4.458 2.334 11.195 9.89 15.744 3.607 2.171 6.998 2.87 10.034 2.87 3.324 0 6.222-.838 8.508-1.5 3.813-1.103 4.884-1.252 6.658-.185 3.542 2.132 8.144.989 10.276-2.554 2.133-3.542.989-8.144-2.554-10.276-7.555-4.548-14.167-2.635-18.542-1.37-3.813 1.103-4.884 1.252-6.657.185-1.774-1.068-2.143-2.084-2.953-5.97-.929-4.458-2.334-11.196-9.89-15.744-7.556-4.549-14.167-2.635-18.542-1.369-3.813 1.103-4.883 1.252-6.656.185s-2.141-2.083-2.951-5.968c-.929-4.458-2.332-11.196-9.889-15.744-3.542-2.134-8.144-.989-10.276 2.554s-.989 8.144 2.554 10.276z"/></g></g></svg>